<svg xmlns="http://www.w3.org/2000/svg" width="97" height="39" viewBox="0 0 97 39" fill="none">
  <g clip-path="url(#clip0_76_815)">
    <path d="M54.183 19.0659C54.4034 19.0724 54.8394 18.8167 54.7503 19.3901C52.0337 19.6637 50.9154 23.0354 49.2248 24.8418C49.0984 24.9819 49.1049 25.0828 49.147 25.2555C49.2021 25.4868 51.4276 29.1582 51.6026 29.3194C51.8149 29.5165 51.6869 29.5198 51.9203 29.3309C52.4957 28.865 54.0954 26.2507 54.559 25.4689C58.2205 19.2842 60.9694 11.5439 52.7048 7.68848C51.8571 7.29267 49.6041 6.80565 49.1795 6.51246C47.7418 5.51724 50.1212 4.17019 50.7063 3.67665C51.0483 3.38835 51.7144 2.50878 52.003 2.37521C52.5832 2.10645 53.0338 2.47946 53.358 2.41593C53.6821 2.35241 54.572 1.13078 55.3289 0.9907C56.188 0.832703 56.3047 1.28878 56.8055 1.41583C58.9012 1.94846 60.2968 -0.367751 62.3163 0.627469C64.0101 1.46306 62.5465 5.27454 62.2531 6.82031C61.9841 8.23251 61.7993 9.66915 61.5562 11.0846L64.7654 4.94878C65.7866 3.50237 66.6197 1.5836 68.5695 2.96974C69.1968 3.41441 70.8079 4.61975 70.9992 5.25011C71.1904 5.88047 71.1175 6.6786 71.4514 7.23892C71.8696 7.94258 73.1776 8.20482 73.8924 9.50789C74.6072 10.811 74.2198 11.2035 74.3656 12.4528C74.484 13.4643 75.5262 14.6371 74.5958 15.489C73.3316 16.6455 69.6231 15.3147 67.9504 15.16C65.7979 14.9612 63.1721 15.0183 61.2255 16.0477C58.06 17.7221 56.6077 22.8562 55.0015 25.9119C54.2105 27.417 53.2283 28.8243 52.3936 30.3049C52.3077 30.6567 52.7874 31.3571 53.0484 31.6161C53.5249 32.0852 54.3305 32.1145 54.431 32.7498H50.4632C47.9638 35.426 44.8388 37.6917 41.2568 38.6266L40.8289 37.8008C43.7545 36.76 46.7352 35.2256 48.9234 32.9909L48.1178 32.5038C48.1097 32.1145 49.7143 32.5331 49.5409 31.4027C49.4712 30.9515 47.4565 27.3746 47.2247 27.3762C46.745 28.2509 44.9685 30.0687 44.7513 30.9157C44.4742 31.9973 45.103 32.2709 46.0107 32.424C46.0577 32.4843 45.7984 32.7482 45.7676 32.7482H41.4772V32.2644C43.9571 31.52 45.2408 28.4106 46.7693 26.4755C45.6639 24.7815 44.6816 22.8155 43.4838 21.2013C42.9441 20.4732 42.3509 19.465 41.3151 19.5546V19.0675H47.4695C47.5473 19.6702 46.685 19.2597 46.4143 19.7158C46.2717 19.9569 46.3073 20.3136 46.3673 20.5791C46.4435 20.9098 48.57 24.4101 48.7597 24.2782C49.207 23.1168 51.1682 21.418 51.2768 20.224C51.3514 19.4112 50.3546 19.5888 50.0579 19.0659C51.4308 19.0936 52.8134 19.0285 54.1878 19.0659H54.183Z" fill="#066959"/>
    <path d="M65.9227 18.5773V20.8576C66.2696 20.641 66.4981 20.0562 66.7899 19.7761C68.5015 18.1293 72.7983 18.087 73.2116 21.0205C74.2943 19.6507 75.6088 18.5219 77.4744 18.5903C83.2089 18.7988 80.5151 27.3078 81.1829 30.9988C81.4422 32.4354 82.6011 32.108 82.8459 32.4208L82.6822 32.7465H76.9331V32.2579C77.656 32.3116 78.254 32.1569 78.3805 31.3506C78.1649 28.3454 78.7046 24.8597 78.3918 21.9131C78.0433 18.6375 73.954 19.5871 73.5504 23.0712C73.3688 24.6414 73.3105 29.6957 73.5423 31.1877C73.727 32.3768 74.8033 32.0803 75.074 32.4191L74.9103 32.7449H69.1611C69.1611 32.0771 69.8711 32.3849 70.3103 32.0282C70.5697 31.8165 70.7204 31.3474 70.7658 31.02C71.0251 29.1696 70.9408 24.5111 70.7868 22.5581C70.4773 18.6587 66.9406 19.3135 66.1594 22.4751C65.7703 24.0485 65.7282 29.1794 65.9665 30.8278C66.1253 31.9305 66.4268 32.24 67.5468 32.3328C67.8175 32.481 67.5322 32.7433 67.4625 32.7433H61.7134V32.2562C62.4249 32.297 63.083 31.9305 63.1786 31.204C63.5903 28.0734 62.8642 24.0143 63.1592 20.7827C63.1268 20.5807 63.0684 20.3527 62.9242 20.2045C62.6567 19.9259 61.7102 19.9781 61.8755 19.6344C61.9662 19.4454 65.4024 18.7906 65.9227 18.5724V18.5773Z" fill="#066959"/>
    <path d="M9.2485 24.604V24.1153C17.9994 23.7537 16.9929 7.3676 7.54338 10.1024C2.76191 11.4853 0.719653 18.3883 4.87548 21.5922C5.03918 21.7177 5.07971 21.9066 5.36173 21.8349V18.4958C5.36173 18.2189 5.68266 17.9436 5.33418 17.3801C5.09754 16.9973 4.48648 17.1471 4.55131 16.6227C6.49794 16.3083 7.86917 14.945 8.68283 13.2021C9.03941 13.1369 8.92433 13.3454 8.9065 13.5898C8.84005 14.554 8.36352 15.7072 8.27762 16.7057C8.12364 18.4942 8.5094 20.7029 8.28248 22.4115C8.16902 23.2634 6.66975 23.4573 5.9274 23.4621C-0.609434 23.5029 -2.06819 14.1403 3.2044 10.7882C9.57753 6.73398 20.7273 10.6725 17.8357 19.4796C17.1144 21.6753 13.9295 24.604 11.5955 24.604H9.24688H9.2485Z" fill="#066959"/>
    <path d="M94.3149 33.3427C94.9049 33.9682 95.5176 33.8867 96.1594 34.175C97.0152 34.561 95.0735 34.8836 94.665 34.877C92.5628 34.8477 90.9306 33.1945 90.8577 31.1177C90.2223 31.5591 89.6664 32.2074 88.9532 32.5397C83.478 35.0921 79.9575 27.7395 86.3777 25.0617C87.4734 24.6056 90.4784 24.1674 90.6875 22.8823C90.9857 21.0547 90.1542 19.0692 88.0358 19.4015C86.4312 19.6523 85.5575 22.0385 87.1346 22.8921C85.2642 24.9786 82.8021 23.024 84.1863 20.5791C85.1069 18.9519 87.8008 18.5919 89.48 18.7418C96.7948 19.3998 91.3537 30.2039 94.3165 33.3427H94.3149ZM90.6972 24.2782C88.6128 25.2946 86.2529 25.6415 85.752 28.3421C85.2755 30.9108 87.7927 32.8296 89.7814 31.0933C89.9759 30.9239 90.6972 29.883 90.6972 29.7348V24.2782Z" fill="#066959"/>
    <path d="M33.4978 18.7825C37.8077 18.157 41.0607 20.4586 41.4497 24.8695C41.8046 28.8764 40.0039 32.6406 35.7022 33.0544C26.5104 33.9372 26.5023 19.7973 33.4978 18.7825ZM34.3034 19.4308C30.9515 20.0562 31.0828 27.5245 32.0342 29.9449C33.1996 32.9143 36.5013 33.4371 37.8255 30.3016C38.8369 27.9072 38.8758 23.4964 37.6731 21.1769C36.9275 19.7386 35.968 19.1197 34.3034 19.4308Z" fill="#066959"/>
    <path d="M22.6885 18.4144V21.3463L23.9041 19.7191C25.0387 18.6245 27.4197 17.9355 28.4295 19.5627C30.2319 22.4686 24.4487 24.0485 25.9269 20.0448C23.2461 19.9553 22.8019 23.0598 22.682 25.1675C22.6155 26.324 22.4988 31.3197 23.165 31.981C23.447 32.2611 24.0921 32.2497 24.4698 32.2595V32.7482H18.3965C18.3268 32.7482 18.0415 32.4859 18.3122 32.3377C19.3706 32.2058 19.8407 32.0021 19.9428 30.8815C20.1324 28.7868 20.2005 23.2797 19.9201 21.2779C19.7775 20.255 19.2166 20.1507 18.4808 19.6344L22.6869 18.4128L22.6885 18.4144Z" fill="#066959"/>
    <path d="M59.6063 19.7174V31.0379C59.6063 31.823 60.4864 32.2758 61.1461 32.4224L60.9824 32.7482H55.4764L55.3127 32.4224C55.5834 32.0852 56.658 32.3817 56.8444 31.191C57.1442 29.2608 56.5672 26.7345 56.9271 24.7587C57.2058 23.2341 58.6079 20.8951 59.6063 19.7174Z" fill="#066959"/>
    <path d="M3.58043 32.7482V32.2595C4.30981 32.3295 5.2191 32.0119 5.352 31.191C5.58865 29.7429 5.00515 25.806 5.48005 24.8027C5.73452 24.2635 7.58714 23.9508 8.19333 23.7863C8.41863 25.8191 7.94859 27.8502 8.10905 29.9026C8.21765 31.2952 8.57909 32.4387 10.221 32.2595V32.7482H3.58043Z" fill="#066959"/>
    <path d="M10.8661 21.6737C11.1546 22.0011 9.97788 23.0875 9.57267 22.9751C9.38465 22.7927 10.6975 21.4815 10.8661 21.6737Z" fill="#066959"/>
  </g>
  <defs>
    <clipPath id="clip0_76_815">
      <rect width="96.375" height="38.25" fill="white" transform="translate(0 0.375)"/>
    </clipPath>
  </defs>
</svg> 